<?xml version="1.0" standalone="no"?>
<!DOCTYPE svg PUBLIC "-//W3C//DTD SVG 20010904//EN"
 "http://www.w3.org/TR/2001/REC-SVG-20010904/DTD/svg10.dtd">
<svg version="1.0" xmlns="http://www.w3.org/2000/svg"
 width="168.000000pt" height="167.000000pt" viewBox="0 0 168.000000 167.000000"
 preserveAspectRatio="xMidYMid meet">

<g transform="translate(0.000000,167.000000) scale(0.100000,-0.100000)"
fill="#000000" stroke="none">
<path d="M725 1659 c-177 -25 -335 -107 -470 -243 -143 -145 -214 -295 -237
-500 -47 -420 248 -816 672 -901 102 -21 260 -16 360 10 151 40 285 120 396
238 326 342 305 872 -48 1191 -180 164 -428 240 -673 205z m330 -34 c90 -24
232 -97 303 -155 128 -105 234 -269 279 -430 27 -101 25 -320 -5 -423 -76
-264 -270 -468 -532 -559 -92 -32 -100 -33 -255 -33 -155 0 -163 1 -255 33
-260 91 -456 295 -531 554 -30 105 -36 271 -15 379 66 322 310 572 631 643 88
20 293 15 380 -9z"/>
<path d="M750 1630 c-142 -17 -303 -87 -414 -178 -206 -171 -318 -449 -286
-710 62 -496 541 -814 1019 -676 277 80 490 306 557 592 22 90 21 256 -1 352
-23 102 -85 230 -151 317 -165 215 -454 336 -724 303z m335 -44 c122 -41 219
-101 310 -191 95 -93 155 -189 198 -313 37 -110 48 -293 24 -409 -64 -297
-292 -533 -592 -608 -94 -24 -266 -24 -360 0 -292 74 -512 293 -586 585 -31
121 -24 310 15 425 76 224 244 405 458 492 106 43 171 53 318 49 115 -2 147
-7 215 -30z"/>
<path d="M785 1515 c0 -44 1 -45 32 -45 50 0 77 56 39 82 -20 14 -28 8 -12 -8
19 -19 20 -36 4 -52 -24 -24 -38 -13 -38 28 0 25 -5 40 -12 40 -9 0 -13 -16
-13 -45z"/>
<path d="M888 1515 c-2 -31 1 -45 9 -45 7 0 12 3 12 8 -4 22 3 34 16 28 9 -3
15 0 15 9 0 9 -6 12 -15 9 -10 -4 -15 0 -15 11 0 12 6 16 20 12 11 -3 20 -1
20 4 0 5 -13 9 -29 9 -27 0 -29 -3 -33 -45z"/>
<path d="M677 1543 c-14 -14 -6 -34 18 -43 14 -5 25 -17 25 -27 0 -12 3 -14
10 -7 16 16 2 41 -26 48 -14 4 -22 11 -18 17 3 6 12 8 20 5 8 -3 14 -1 14 4 0
11 -33 14 -43 3z"/>
<path d="M1013 1534 c3 -3 -1 -23 -8 -45 -11 -31 -12 -39 -1 -39 7 0 17 20 23
45 9 38 8 45 -5 45 -8 0 -13 -3 -9 -6z"/>
<path d="M636 1503 c7 -16 14 -36 14 -45 0 -19 15 -24 25 -8 3 5 13 6 23 3 15
-6 15 -5 3 11 -11 13 -16 14 -22 4 -5 -8 -11 -4 -18 15 -6 16 -11 33 -11 38 0
5 -6 9 -14 9 -13 0 -13 -4 0 -27z"/>
<path d="M1043 1504 c-11 -24 -7 -64 7 -64 4 0 5 11 2 25 -2 15 0 25 7 25 6 0
11 6 11 14 0 25 -15 25 -27 0z"/>
<path d="M577 1513 c-15 -15 -6 -43 13 -43 12 0 24 -9 29 -22 8 -21 10 -21 16
-5 9 21 -1 33 -29 39 -11 1 -21 9 -24 17 -3 10 0 12 12 8 9 -4 16 -2 16 3 0
11 -23 13 -33 3z"/>
<path d="M1087 1492 c-10 -10 -17 -25 -17 -34 0 -20 32 -48 56 -48 45 0 60 58
22 84 -29 21 -41 20 -61 -2z m57 -8 c9 -8 16 -19 16 -24 0 -16 -32 -41 -49
-38 -20 4 -27 44 -11 64 16 18 25 18 44 -2z"/>
<path d="M538 1494 c-4 -3 0 -17 9 -30 18 -28 13 -30 -28 -9 -41 22 -54 10
-29 -25 18 -26 29 -62 13 -47 -3 4 -12 -1 -19 -11 -12 -15 -15 -15 -23 -2 -7
9 -6 19 1 27 6 8 8 16 4 20 -3 3 -6 1 -6 -5 0 -7 -7 -12 -15 -12 -8 0 -15 7
-15 15 0 8 7 15 15 15 8 0 15 5 15 10 0 7 -6 7 -19 0 -32 -16 -33 -28 -9 -62
13 -18 24 -35 25 -36 1 -2 16 7 35 20 18 12 34 24 36 25 2 1 -4 13 -13 27 -20
30 -17 31 30 12 19 -8 35 -11 35 -6 0 5 7 6 17 3 11 -4 14 -3 9 6 -5 7 -14 10
-21 7 -8 -3 -19 9 -27 30 -8 19 -17 32 -20 28z"/>
<path d="M937 1483 c-4 -3 -7 -11 -7 -17 0 -6 5 -5 12 2 6 6 9 14 7 17 -3 3
-9 2 -12 -2z"/>
<path d="M1191 1463 c3 -18 -2 -30 -21 -50 l-19 -21 32 -21 c18 -11 34 -16 35
-11 5 14 29 13 38 -1 3 -6 1 -14 -5 -18 -8 -5 -5 -13 8 -25 19 -18 21 -17 46
10 l26 29 -7 -50 -7 -50 35 30 c19 17 33 33 31 38 -3 4 -13 -3 -24 -15 l-20
-23 5 37 c6 49 -2 54 -36 21 -34 -33 -43 -26 -29 23 6 21 9 40 6 42 -2 2 -19
-4 -37 -15 -30 -18 -68 -21 -68 -5 0 4 9 21 19 39 19 29 18 43 -1 43 -4 0 -7
-3 -7 -7z"/>
<path d="M832 1413 c-7 -7 -27 -13 -45 -13 -104 -1 -246 -69 -342 -165 -114
-114 -165 -237 -165 -400 0 -157 47 -278 151 -390 224 -240 604 -240 828 0
104 112 151 233 151 390 0 163 -51 286 -165 400 -96 96 -238 164 -342 165 -17
0 -38 6 -45 13 -11 12 -16 12 -26 0z m-15 -38 c-11 -7 -25 -11 -33 -8 -8 3
-14 -1 -14 -8 0 -7 -3 -10 -6 -6 -8 8 -52 -20 -108 -70 -45 -39 -53 -63 -21
-63 7 0 16 -7 19 -16 3 -8 10 -13 15 -9 6 3 15 -3 20 -14 14 -25 14 -34 0 -25
-8 4 -8 0 0 -15 7 -11 17 -20 23 -18 6 1 13 -4 16 -12 3 -8 0 -11 -7 -7 -6 4
-11 2 -11 -3 0 -6 -16 -11 -35 -11 l-35 0 0 -260 c0 -169 4 -268 11 -284 6
-13 26 -32 44 -42 24 -12 31 -22 27 -36 -3 -14 -8 -16 -15 -9 -6 6 -26 11 -45
11 -19 0 -31 4 -27 10 3 6 -1 7 -9 4 -21 -8 -20 5 2 23 16 14 16 14 -4 10 -15
-3 -26 4 -38 24 -10 16 -22 29 -28 29 -6 0 -3 -9 8 -21 14 -16 15 -22 5 -28
-9 -6 -7 -10 9 -14 25 -6 22 -33 -4 -31 -9 1 -16 -5 -16 -13 0 -8 -4 -12 -10
-8 -13 8 -61 -5 -54 -16 3 -5 12 -5 23 0 9 5 23 6 30 2 9 -6 6 -10 -10 -14
-19 -5 -20 -8 -9 -21 7 -9 19 -16 26 -16 8 0 14 -5 14 -11 0 -7 11 -9 29 -6
25 5 28 3 24 -13 -4 -15 0 -20 14 -20 11 0 23 3 27 7 16 16 80 31 100 23 20
-8 20 -9 1 -10 -17 0 -17 -2 -5 -10 8 -5 10 -10 4 -10 -5 0 -15 5 -21 11 -11
11 -33 5 -33 -9 0 -14 55 -7 80 10 45 30 72 31 109 4 29 -22 35 -23 48 -10 8
7 20 14 26 14 7 0 3 -7 -7 -15 -11 -8 -15 -15 -9 -15 7 0 14 4 18 10 3 5 12 7
20 3 8 -3 15 -2 15 1 0 8 -77 46 -95 46 -17 0 -19 18 -4 40 9 12 10 12 5 -3
-4 -12 -2 -17 6 -15 7 3 13 17 13 31 1 17 -3 23 -9 17 -5 -5 -16 -6 -26 0 -25
13 -48 -14 -30 -35 10 -13 9 -15 -9 -15 -14 0 -20 -4 -15 -12 4 -7 3 -8 -5 -4
-6 4 -9 11 -6 16 3 5 1 11 -4 14 -5 4 -13 2 -16 -4 -4 -6 -23 -8 -43 -6 -20 3
-29 3 -19 0 9 -3 17 -10 17 -16 0 -6 10 -8 25 -4 25 6 36 -9 13 -16 -18 -6
-58 3 -53 12 8 13 -21 6 -40 -10 -14 -11 -18 -11 -25 -1 -6 11 -11 9 -19 -8
-7 -11 -18 -21 -26 -21 -18 0 -19 12 -3 28 19 19 0 27 -28 12 -17 -10 -28 -11
-32 -4 -4 6 -16 16 -27 22 -17 10 -18 11 -2 12 9 0 17 7 17 16 0 11 6 14 22 9
17 -6 20 -4 15 9 -7 18 8 22 18 6 4 -6 15 -8 25 -5 20 6 36 -21 17 -29 -7 -2
-2 -5 10 -5 12 -1 30 -4 40 -7 10 -3 6 2 -9 11 -16 8 -28 21 -28 27 0 7 5 6
15 -2 11 -9 19 -10 26 -3 11 11 59 -5 59 -19 0 -5 5 -8 11 -8 5 0 7 5 4 10 -3
6 2 10 11 10 10 0 14 3 11 7 -4 3 -20 6 -36 5 -23 0 -28 3 -24 14 3 8 12 13
20 10 8 -3 11 -1 8 4 -10 16 -35 12 -35 -6 0 -8 -4 -13 -10 -9 -15 9 0 35 22
35 30 0 58 -19 69 -47 l9 -25 23 33 c18 27 30 35 62 37 53 5 105 -6 102 -21
-1 -7 6 -11 17 -9 11 2 15 -1 11 -7 -3 -6 1 -11 9 -11 9 0 16 -4 16 -10 0 -14
-27 -13 -32 2 -2 6 -10 8 -17 4 -9 -6 -8 -11 6 -21 15 -11 11 -12 -31 -4 -27
5 -52 7 -54 4 -3 -3 3 -5 13 -5 10 0 15 -3 12 -7 -8 -8 12 -33 26 -33 6 0 2 7
-9 16 -19 15 -19 16 1 9 44 -14 78 -18 72 -8 -4 6 0 16 8 23 13 10 24 10 56 1
41 -13 69 -4 69 22 0 7 -3 8 -10 1 -5 -5 -30 -8 -55 -6 -33 3 -48 10 -56 24
-7 13 -7 18 -1 14 6 -3 13 -2 17 4 17 27 155 61 155 38 0 -4 -9 -8 -19 -8 -11
0 -22 -4 -25 -9 -4 -5 4 -7 16 -3 27 7 15 -16 -16 -28 -14 -6 -16 -9 -5 -9 21
-1 94 86 103 122 l7 28 -43 -22 c-24 -12 -54 -31 -67 -43 -18 -15 -23 -17 -19
-5 4 9 2 22 -3 30 -6 10 -9 11 -10 2 -3 -23 -4 -28 -12 -40 -5 -7 -14 -13 -20
-13 -8 0 -8 3 -2 8 10 7 14 25 20 102 2 25 1 32 -1 15 -9 -61 -15 -76 -26 -69
-6 4 -8 3 -5 -3 3 -5 2 -23 -3 -39 l-10 -29 5 32 c2 18 0 35 -5 38 -15 9 -12
51 3 64 8 6 16 9 18 6 3 -2 5 4 5 15 0 14 -4 16 -12 9 -9 -7 -14 -5 -17 8 -2
10 -3 6 -1 -9 2 -15 -1 -30 -6 -33 -6 -3 -10 -27 -11 -53 0 -26 -3 -41 -6 -34
-7 19 -23 14 -23 -8 0 -14 5 -18 18 -14 10 4 13 3 6 -3 -6 -4 -16 -17 -23 -28
-12 -19 -12 -19 -8 3 5 22 -7 30 -18 12 -3 -5 -13 -10 -21 -10 -12 0 -9 8 10
31 l26 31 0 264 0 264 -35 0 c-41 0 -43 10 -13 58 12 20 16 32 10 28 -17 -10
-15 7 4 30 15 19 16 19 10 -1 -5 -17 -4 -18 6 -4 7 8 21 18 31 22 23 9 22 24
-4 37 -11 6 -32 24 -47 39 -24 25 -65 53 -84 57 -5 1 -9 2 -10 4 -2 1 -11 3
-22 5 -10 2 -24 9 -30 16 -8 9 2 10 44 5 278 -34 490 -272 490 -551 0 -149
-56 -283 -164 -391 -112 -113 -235 -164 -391 -164 -156 0 -279 51 -391 164
-173 173 -213 418 -104 641 81 167 276 297 455 303 28 1 29 0 12 -13z m38 -5
c3 -5 -1 -10 -10 -10 -9 0 -13 5 -10 10 3 6 8 10 10 10 2 0 7 -4 10 -10z m108
-50 c34 -23 54 -51 25 -34 -8 4 -10 3 -5 -2 5 -5 13 -9 18 -9 19 0 8 -20 -11
-21 -11 -1 -20 5 -20 12 0 8 -6 11 -15 8 -8 -4 -15 -1 -15 4 0 6 10 12 23 15
19 3 15 7 -23 25 -25 12 -56 21 -70 21 -20 -1 -21 -2 -5 -6 11 -2 34 -9 52
-14 29 -9 31 -12 20 -30 -14 -22 -29 -26 -21 -5 3 8 1 17 -5 21 -7 3 -8 0 -5
-9 5 -12 -4 -15 -44 -14 -34 0 -52 5 -56 14 -8 20 -25 17 -34 -6 -7 -20 -7
-20 -20 0 -11 18 -8 21 36 34 26 8 39 15 29 15 -24 1 -87 -26 -111 -47 -14
-13 -18 -14 -14 -2 2 8 24 25 49 38 61 33 168 29 222 -8z m-163 -30 c0 -5 -4
-10 -10 -10 -5 0 -10 5 -10 10 0 6 5 10 10 10 6 0 10 -4 10 -10z m-50 -10 c0
-5 -7 -10 -15 -10 -8 0 -15 -5 -15 -11 0 -5 -4 -8 -9 -4 -5 3 -16 -2 -24 -10
-22 -21 -28 -19 -18 8 5 12 13 22 19 22 6 0 14 3 18 8 11 11 44 9 44 -3z m62
-55 c5 -40 -16 -50 -26 -12 -9 35 -7 47 8 47 8 0 15 -14 18 -35z m48 0 c0 -24
-5 -35 -15 -35 -10 0 -15 11 -15 35 0 24 5 35 15 35 10 0 15 -11 15 -35z m46
13 c-3 -13 -6 -29 -6 -35 0 -7 -7 -13 -16 -13 -12 0 -15 6 -10 23 3 12 6 28 6
35 0 6 7 12 16 12 12 0 15 -6 10 -22z m-256 2 c0 -5 -7 -10 -15 -10 -8 0 -15
5 -15 10 0 6 7 10 15 10 8 0 15 -4 15 -10z m110 7 c0 -1 4 -17 9 -35 7 -25 7
-32 -4 -32 -14 0 -37 54 -28 64 6 6 23 8 23 3z m193 -3 c10 -10 -14 -64 -29
-64 -11 0 -13 7 -8 28 10 42 21 52 37 36z m77 -4 c0 -5 -4 -10 -10 -10 -5 0
-10 5 -10 10 0 6 5 10 10 10 6 0 10 -4 10 -10z m40 0 c0 -5 -7 -10 -15 -10 -8
0 -15 5 -15 10 0 6 7 10 15 10 8 0 15 -4 15 -10z m-343 -42 c11 -25 8 -38 -7
-38 -12 0 -32 58 -25 70 8 14 17 5 32 -32z m263 -7 c-7 -17 -16 -31 -21 -31
-17 0 -19 21 -4 51 22 42 44 25 25 -20z m-170 -46 c0 -14 -4 -25 -9 -25 -10 0
-21 36 -13 44 12 13 22 5 22 -19z m40 5 c0 -11 -7 -20 -15 -20 -8 0 -15 9 -15
20 0 11 7 20 15 20 8 0 15 -9 15 -20z m30 1 c0 -11 -4 -23 -10 -26 -6 -4 -10
5 -10 19 0 14 5 26 10 26 6 0 10 -9 10 -19z m-102 -15 c3 -12 -1 -17 -10 -14
-7 3 -15 13 -16 22 -3 12 1 17 10 14 7 -3 15 -13 16 -22z m142 20 c0 -2 -3
-11 -6 -20 -9 -23 -24 -20 -24 4 0 11 7 20 15 20 8 0 15 -2 15 -4z m-176 -22
c4 -9 4 -19 2 -21 -8 -8 -26 8 -26 23 0 19 16 18 24 -2z m206 0 c0 -8 4 -12
10 -9 6 4 7 -1 3 -11 -4 -10 -8 -13 -10 -7 -3 7 -11 9 -19 6 -16 -6 -17 -2 -8
21 8 21 24 21 24 0z m-100 -99 c0 -20 5 -25 25 -25 16 0 25 -6 25 -15 0 -9 -9
-15 -25 -15 -16 0 -25 -6 -25 -15 0 -10 10 -15 30 -15 20 0 30 -5 30 -15 0
-10 -10 -15 -30 -15 -28 0 -30 -2 -30 -41 0 -33 3 -40 15 -35 13 5 14 2 4 -16
-9 -17 -8 -23 7 -31 11 -6 29 -12 41 -13 12 -1 30 -7 40 -13 13 -8 -18 -10
-116 -11 -117 0 -132 2 -121 15 7 8 24 15 39 15 42 0 59 15 44 39 -11 17 -10
19 2 15 12 -5 15 3 15 35 0 39 -2 41 -30 41 -20 0 -30 5 -30 15 0 10 10 15 30
15 20 0 30 5 30 15 0 9 -9 15 -25 15 -16 0 -25 6 -25 15 0 9 9 15 25 15 20 0
25 5 25 25 0 16 6 25 15 25 9 0 15 -9 15 -25z m-129 -182 c-4 -28 -6 -32 -9
-15 -3 22 3 52 11 52 1 0 1 -17 -2 -37z m226 15 c-3 -8 -6 -5 -6 6 -1 11 2 17
5 13 3 -3 4 -12 1 -19z m50 16 c-3 -3 -12 -4 -19 -1 -8 3 -5 6 6 6 11 1 17 -2
13 -5z m-239 -49 c-3 -3 -9 2 -12 12 -6 14 -5 15 5 6 7 -7 10 -15 7 -18z m249
-7 c-3 -7 -5 -2 -5 12 0 14 2 19 5 13 2 -7 2 -19 0 -25z m13 -121 c0 -16 -10
-28 -32 -40 -26 -12 -29 -16 -12 -16 11 -1 26 5 33 12 11 9 10 7 0 -10 -15
-25 -45 -31 -52 -10 -6 16 42 86 61 87 1 0 2 -10 2 -23z m-233 -33 c-3 -3 -12
-4 -19 -1 -8 3 -5 6 6 6 11 1 17 -2 13 -5z m157 -30 c3 -8 2 -13 -3 -9 -5 3
-22 -10 -38 -30 -26 -31 -32 -33 -58 -26 -25 7 -27 10 -12 16 9 4 17 12 17 17
0 6 -8 7 -17 4 -16 -6 -16 -5 -3 8 8 8 34 16 58 17 23 2 42 7 42 11 0 13 7 9
14 -8z m-227 -80 c-3 -3 -12 -4 -19 -1 -8 3 -5 6 6 6 11 1 17 -2 13 -5z m298
-3 c12 -20 -47 -51 -96 -51 -35 0 -53 -5 -67 -20 l-19 -20 -18 20 c-13 15 -31
20 -64 20 -26 0 -56 7 -69 16 -23 16 -30 39 -9 31 6 -2 11 -8 10 -13 0 -5 16
-10 38 -11 21 0 39 3 39 8 0 6 8 5 19 -1 29 -15 80 -12 136 10 56 21 91 24
100 11z m240 -1 c-3 -5 -1 -10 5 -10 6 0 8 -5 4 -11 -5 -8 -8 -8 -14 0 -4 7
-15 9 -26 4 -17 -6 -17 -5 -5 10 14 18 47 24 36 7z m-165 -60 c0 -5 -5 -10
-11 -10 -5 0 -7 5 -4 10 3 6 8 10 11 10 2 0 4 -4 4 -10z m-200 -60 c0 -5 -7
-10 -15 -10 -8 0 -15 5 -15 10 0 6 7 10 15 10 8 0 15 -4 15 -10z m-10 -50 c0
-5 -2 -10 -4 -10 -3 0 -8 5 -11 10 -3 6 -1 10 4 10 6 0 11 -4 11 -10z m60 -24
c0 -2 -7 -7 -16 -10 -8 -3 -12 -2 -9 4 6 10 25 14 25 6z"/>
<path d="M1256 869 c-14 -11 -26 -27 -26 -35 0 -20 -5 -18 -35 12 -28 28 -40
28 -29 0 3 -9 10 -13 16 -10 12 8 37 -26 37 -51 0 -19 -1 -19 -19 4 -23 27
-27 15 -5 -15 8 -12 11 -25 7 -29 -4 -5 -2 -5 5 -1 7 4 13 -2 16 -16 2 -13 5
-1 6 25 1 58 24 117 45 117 10 0 13 -6 9 -17 -3 -10 -4 -16 -2 -13 2 3 13 15
23 28 19 22 19 22 -1 22 -11 0 -32 -9 -47 -21z"/>
<path d="M535 870 c-4 -6 -14 -9 -24 -5 -13 5 -14 4 -3 -6 9 -10 15 -10 24 -1
18 18 30 14 23 -8 -4 -13 -2 -20 7 -20 10 0 9 -3 -2 -10 -8 -5 -11 -10 -6 -10
6 0 1 -7 -10 -16 -18 -14 -18 -15 4 -4 26 13 40 39 26 49 -5 3 -9 12 -9 20 0
18 -21 26 -30 11z"/>
<path d="M440 805 c-5 -14 -17 -25 -27 -25 -15 0 -15 -1 2 -14 16 -11 17 -17
7 -29 -13 -16 -6 -50 9 -41 5 3 9 1 9 -4 0 -6 -7 -12 -15 -16 -8 -3 -15 -1
-15 4 0 13 -32 50 -44 50 -5 0 0 -10 12 -23 27 -28 27 -34 5 -40 -11 -3 -7 -5
10 -6 15 0 27 -5 27 -10 0 -5 9 -13 20 -16 25 -8 27 -25 1 -18 -11 3 -21 -2
-24 -11 -4 -9 -2 -16 2 -16 5 0 11 4 13 10 5 14 80 -6 95 -26 7 -10 13 -13 13
-8 0 6 -5 15 -12 22 -6 6 -9 15 -5 19 4 3 14 -2 22 -13 13 -17 13 -16 5 16 -6
19 -10 37 -10 40 0 3 -9 -8 -20 -25 -17 -25 -20 -27 -21 -10 0 11 -3 14 -6 8
-7 -18 -23 -16 -23 2 0 8 -6 15 -14 15 -23 0 -28 18 -12 42 l16 22 11 -33 c15
-42 20 -36 10 11 -5 21 -5 38 0 40 5 2 4 10 -1 18 -8 13 -10 13 -10 -1 0 -24
-23 -40 -40 -28 -11 6 -12 11 -4 17 6 4 15 26 19 49 5 32 12 43 28 46 22 4 22
4 -1 6 -16 1 -25 -7 -32 -24z"/>
<path d="M1251 814 c0 -11 3 -14 6 -6 3 7 2 16 -1 19 -3 4 -6 -2 -5 -13z"/>
<path d="M1271 814 c0 -11 5 -27 12 -35 6 -8 11 -12 10 -10 -2 2 5 10 15 17 9
7 14 16 10 20 -4 4 -14 1 -22 -5 -12 -10 -15 -8 -19 11 -4 20 -4 21 -6 2z"/>
<path d="M340 795 c-10 -12 -10 -18 0 -30 10 -12 10 -15 -4 -15 -24 0 -20 -37
5 -51 17 -9 19 -13 8 -20 -8 -5 -9 -9 -4 -9 6 0 16 4 23 9 10 6 7 12 -12 25
-29 18 -34 36 -11 36 12 0 14 7 9 27 -6 23 -5 25 15 20 18 -4 20 -3 10 9 -15
18 -23 18 -39 -1z"/>
<path d="M500 799 c0 -5 5 -7 10 -4 6 3 10 8 10 11 0 2 -4 4 -10 4 -5 0 -10
-5 -10 -11z"/>
<path d="M1105 790 c4 -11 7 -30 9 -43 3 -32 16 -49 32 -43 13 5 15 -2 28 -89
3 -16 3 -2 1 31 -1 34 -9 72 -16 85 l-13 24 -7 -25 c-6 -20 -7 -21 -8 -5 -1
11 -4 31 -8 44 -5 21 -4 22 16 12 11 -7 30 -30 41 -51 11 -22 25 -40 31 -40
14 0 -6 34 -48 81 -39 43 -69 53 -58 19z"/>
<path d="M557 751 c-4 -17 -3 -21 5 -13 5 5 8 16 6 23 -3 8 -7 3 -11 -10z"/>
<path d="M1324 739 c-17 -19 -19 -19 -25 -2 -6 15 -8 15 -8 2 -1 -18 -31 -48
-31 -31 0 6 5 14 10 17 6 3 10 12 10 18 0 8 -3 7 -9 -2 -7 -11 -9 -11 -14 0
-3 8 -6 4 -6 -9 -1 -30 -24 -102 -33 -102 -4 0 -8 12 -10 28 -2 15 -6 -1 -8
-35 l-5 -62 28 27 c20 19 39 27 64 27 20 0 38 5 40 12 3 7 -4 9 -19 6 l-23 -6
23 26 c20 21 47 95 38 104 -2 2 -11 -6 -22 -18z m-20 -46 c-5 -15 -3 -15 10 1
27 33 18 7 -10 -30 -31 -41 -51 -46 -28 -6 16 26 16 26 -9 -3 -25 -28 -26 -29
-27 -8 0 12 12 31 26 42 33 26 45 27 38 4z"/>
<path d="M1086 725 c4 -8 8 -15 10 -15 2 0 4 7 4 15 0 8 -4 15 -10 15 -5 0 -7
-7 -4 -15z"/>
<path d="M520 715 c-10 -12 -10 -15 4 -15 10 0 16 -9 17 -22 l1 -23 6 23 c7
25 24 31 31 11 2 -7 -1 -9 -8 -5 -6 4 -11 1 -11 -7 0 -8 7 -18 16 -21 16 -6
16 -8 0 -24 -19 -21 -20 -32 -5 -32 5 0 7 5 4 10 -10 16 7 12 27 -7 11 -10 18
-12 18 -4 0 6 -7 14 -16 18 -9 3 -13 12 -9 21 3 8 0 19 -7 24 -10 7 -10 11 -1
14 10 4 10 10 0 24 -8 14 -18 18 -36 13 -17 -4 -22 -2 -17 6 10 16 1 14 -14
-4z"/>
<path d="M351 647 c9 -7 14 -19 12 -27 -4 -13 -3 -13 6 0 15 22 14 27 -11 33
-20 5 -21 4 -7 -6z"/>
<path d="M1110 604 c0 -8 5 -12 10 -9 6 3 10 10 10 16 0 5 -4 9 -10 9 -5 0
-10 -7 -10 -16z"/>
<path d="M376 594 c-10 -25 -7 -32 13 -39 13 -4 18 -12 15 -23 -5 -14 -4 -15
5 -2 15 21 14 40 -3 34 -20 -8 -30 14 -16 31 7 9 8 15 2 15 -5 0 -13 -7 -16
-16z"/>
<path d="M590 559 c0 -5 6 -9 14 -9 8 0 17 -6 19 -12 4 -8 6 -7 6 3 1 9 -8 19
-19 22 -11 3 -20 1 -20 -4z"/>
<path d="M477 536 c10 -14 25 -27 33 -29 8 -3 24 -8 35 -11 11 -4 3 2 -17 14
-21 11 -38 24 -38 29 0 5 -7 12 -15 15 -13 5 -12 1 2 -18z"/>
<path d="M424 518 c-5 -7 -3 -8 6 -3 10 6 11 2 6 -18 -7 -31 6 -42 33 -28 13
7 21 8 24 1 3 -6 4 -5 3 2 -4 14 -10 14 -38 3 -15 -6 -17 -3 -12 24 6 31 -7
43 -22 19z"/>
<path d="M675 490 c27 -12 43 -12 25 0 -8 5 -22 9 -30 9 -10 0 -8 -3 5 -9z"/>
<path d="M1125 475 l-30 -13 45 -1 c30 0 40 2 31 8 -11 7 -10 10 5 14 18 4 18
5 -1 5 -11 1 -33 -5 -50 -13z"/>
<path d="M949 454 c-7 -9 -8 -14 -1 -14 6 0 12 5 14 11 2 5 11 7 21 4 9 -4 14
-11 11 -16 -9 -15 13 -10 26 6 14 17 15 16 -27 20 -19 1 -37 -3 -44 -11z"/>
<path d="M580 420 c0 -5 7 -6 17 -3 12 5 14 3 8 -8 -7 -12 -6 -12 11 1 10 8
21 16 23 17 2 2 -10 3 -27 3 -18 0 -32 -4 -32 -10z"/>
<path d="M1104 395 c-10 -8 -14 -15 -8 -15 6 0 17 7 24 15 16 19 9 19 -16 0z"/>
<path d="M1043 373 c9 -2 23 -2 30 0 6 3 -1 5 -18 5 -16 0 -22 -2 -12 -5z"/>
<path d="M827 1313 c-13 -12 -7 -25 6 -14 8 6 17 8 20 4 4 -3 7 -1 7 5 0 13
-22 16 -33 5z"/>
<path d="M972 551 c-11 -6 -10 -10 4 -15 10 -4 24 0 33 9 14 13 13 15 -4 15
-11 0 -26 -4 -33 -9z"/>
<path d="M860 520 c-20 -6 -21 -8 -5 -8 11 0 29 3 40 8 25 11 -1 11 -35 0z"/>
<path d="M377 1394 c-3 -4 4 -15 16 -26 l22 -19 -37 5 c-21 2 -40 2 -42 -2 -6
-10 54 -75 62 -68 3 4 -4 13 -16 22 -34 23 -26 33 21 27 l42 -6 -25 29 c-14
16 -27 32 -31 37 -3 4 -8 4 -12 1z"/>
<path d="M276 1286 c-50 -61 -68 -94 -61 -106 8 -13 42 -13 50 0 10 17 25 11
25 -10 0 -11 -7 -20 -15 -20 -16 0 -20 -12 -8 -23 9 -10 32 25 33 51 0 24 -19
29 -50 12 -13 -7 -21 -7 -25 0 -3 6 1 13 9 16 9 3 13 10 10 15 -3 5 -1 9 5 9
5 0 11 7 13 16 2 14 9 11 36 -14 17 -16 35 -26 38 -20 5 8 -6 20 -49 49 -5 4
-3 16 4 27 13 21 14 21 45 -9 18 -17 34 -27 37 -22 2 4 -11 22 -30 39 l-34 32
-33 -42z"/>
<path d="M1386 1281 c-10 -11 -27 -23 -37 -26 -17 -6 -18 -8 -3 -30 20 -30 47
-39 74 -25 25 13 26 50 2 80 l-17 22 -19 -21z m34 -56 c-16 -19 -60 -20 -60
-1 0 8 12 24 27 36 l28 21 9 -20 c6 -14 5 -25 -4 -36z"/>
<path d="M1416 1184 c-22 -21 -20 -47 4 -69 45 -40 105 20 65 65 -22 24 -48
26 -69 4z m71 -21 c9 -24 -33 -56 -58 -43 -22 12 -24 31 -7 48 17 17 58 15 65
-5z"/>
<path d="M187 1143 c-14 -28 -14 -28 29 -49 41 -19 43 -20 47 -2 3 10 1 16 -4
13 -4 -3 -22 1 -39 10 -26 13 -29 19 -19 31 6 8 9 17 6 20 -3 3 -12 -7 -20
-23z"/>
<path d="M220 1134 c0 -8 5 -12 10 -9 6 4 8 11 5 16 -9 14 -15 11 -15 -7z"/>
<path d="M165 1081 c-3 -7 3 -11 14 -11 12 0 21 -4 21 -8 0 -17 -13 -21 -31
-11 -14 7 -19 6 -19 -5 0 -8 14 -16 35 -20 53 -10 39 -36 -19 -36 -38 0 -37
-11 4 -41 46 -33 50 -34 50 -14 0 8 -5 14 -12 13 -6 -2 -14 5 -16 15 -2 12 3
17 17 17 12 0 21 4 21 9 0 5 3 16 6 24 3 10 -1 17 -13 19 -11 2 -18 12 -18 28
0 26 -28 40 -40 21z"/>
<path d="M1495 1052 c-22 -8 -41 -16 -43 -18 -7 -4 11 -54 19 -54 6 0 6 8 0
19 -11 20 -5 31 16 31 7 0 13 -7 13 -16 0 -8 4 -13 10 -9 5 3 7 12 3 20 -3 9
1 15 11 15 9 0 16 7 16 15 0 8 -1 15 -2 14 -2 -1 -21 -8 -43 -17z"/>
<path d="M1536 1015 c-3 -8 -1 -15 4 -15 6 0 10 7 10 15 0 8 -2 15 -4 15 -2 0
-6 -7 -10 -15z"/>
<path d="M1490 970 c-11 -11 -20 -27 -20 -35 0 -17 35 -55 50 -55 6 0 20 10
33 23 12 12 25 21 30 20 4 -2 7 2 7 7 0 6 -5 10 -11 10 -5 0 -7 6 -3 13 4 6 4
9 0 5 -4 -3 -16 2 -27 13 -24 24 -34 24 -59 -1z m61 -16 c17 -21 0 -49 -31
-49 -31 0 -48 28 -31 49 8 9 21 16 31 16 10 0 23 -7 31 -16z"/>
<path d="M132 908 c-21 -21 -13 -32 9 -12 24 22 52 10 57 -26 3 -21 1 -22 -37
-15 -25 4 -41 3 -41 -3 0 -6 20 -12 45 -14 44 -3 45 -3 45 27 0 36 -16 55 -45
55 -12 0 -26 -5 -33 -12z"/>
<path d="M1557 864 c5 -14 0 -16 -35 -12 -30 2 -42 0 -42 -9 0 -9 15 -13 44
-13 39 0 44 3 48 25 4 17 1 25 -8 25 -8 0 -11 -6 -7 -16z"/>
<path d="M120 810 c0 -5 5 -10 11 -10 5 0 7 5 4 10 -3 6 -8 10 -11 10 -2 0 -4
-4 -4 -10z"/>
<path d="M178 810 c12 -6 22 -18 22 -30 0 -17 -6 -20 -40 -20 -28 0 -40 -4
-40 -14 0 -8 7 -13 18 -11 72 15 72 15 72 44 0 27 -16 42 -43 40 -7 0 -2 -4
11 -9z"/>
<path d="M1559 813 c-1 -4 -1 -11 0 -15 0 -4 -17 -13 -39 -19 -22 -7 -40 -15
-40 -18 0 -10 78 -49 85 -43 3 3 -9 12 -27 19 -26 11 -30 16 -18 23 8 5 22 10
31 10 18 0 33 37 18 46 -5 3 -10 2 -10 -3z"/>
<path d="M176 723 c-4 -4 -12 -9 -17 -9 -5 -1 -13 -2 -19 -3 -12 -1 -13 -41
-2 -58 5 -8 13 -9 22 -3 8 6 27 10 43 10 17 0 27 5 27 15 0 11 -5 12 -25 5
-22 -8 -25 -7 -25 11 0 17 5 20 21 16 13 -3 19 -1 16 6 -5 15 -30 21 -41 10z
m-6 -44 c0 -5 -7 -9 -15 -9 -15 0 -20 12 -9 23 8 8 24 -1 24 -14z"/>
<path d="M1470 695 c-7 -8 -10 -28 -8 -45 3 -20 0 -30 -8 -30 -15 0 -28 -35
-19 -50 9 -14 28 -13 60 4 15 8 22 17 16 20 -6 4 -21 0 -35 -9 -18 -12 -26
-13 -32 -4 -9 16 25 41 46 34 9 -3 32 1 51 9 19 9 28 15 22 16 -7 0 -13 10
-13 23 0 43 -53 65 -80 32z m54 -8 c28 -21 17 -52 -19 -52 -33 0 -45 25 -25
50 15 18 21 19 44 2z"/>
<path d="M204 580 c-7 -32 -20 -39 -27 -15 -4 11 -4 10 -3 -2 2 -28 39 -22 46
6 8 35 34 42 28 8 -3 -15 -1 -24 3 -21 19 11 8 -11 -18 -38 -14 -15 -24 -30
-21 -34 9 -8 99 7 93 16 -3 5 -14 6 -25 3 -14 -4 -20 0 -20 10 0 8 5 17 10 19
7 2 5 17 -5 41 -20 48 -53 51 -61 7z"/>
<path d="M1500 549 c0 -5 5 -7 10 -4 6 3 10 8 10 11 0 2 -4 4 -10 4 -5 0 -10
-5 -10 -11z"/>
<path d="M1400 522 c0 -4 12 -15 28 -24 l27 -17 -44 -7 -44 -7 34 -28 c18 -15
38 -25 43 -22 5 3 -4 13 -20 22 l-29 16 35 3 c51 5 53 14 9 44 -21 15 -39 24
-39 20z"/>
<path d="M310 473 c0 -5 -13 -17 -30 -26 -27 -17 -34 -15 -31 6 0 4 -4 7 -9 7
-14 0 -13 -8 7 -41 10 -16 24 -29 32 -29 12 0 11 3 -3 13 -16 12 -15 15 18 32
37 20 43 29 26 40 -5 3 -10 2 -10 -2z"/>
<path d="M1330 420 c-11 -11 -20 -26 -20 -34 0 -20 28 -46 50 -46 45 0 69 69
31 90 -28 14 -38 13 -61 -10z m64 -22 c8 -14 7 -22 -7 -35 -23 -23 -51 -7 -55
31 -3 25 -1 27 24 24 15 -2 32 -11 38 -20z"/>
<path d="M317 399 c-22 -16 -33 -30 -27 -34 6 -4 26 7 45 24 45 39 31 47 -18
10z"/>
<path d="M353 389 c-7 -7 -9 -25 -6 -40 3 -18 1 -29 -6 -29 -6 0 -11 7 -11 16
0 8 -5 12 -11 8 -17 -10 16 -38 36 -30 13 5 16 14 12 36 -7 33 11 53 20 21 3
-11 9 -18 14 -15 5 3 9 -2 9 -10 0 -8 -9 -20 -20 -26 -24 -13 -25 -28 -4 -51
15 -17 17 -17 40 11 17 19 30 26 44 23 27 -7 35 -22 21 -36 -9 -9 -14 -9 -20
2 -5 8 -11 9 -15 3 -3 -5 2 -13 11 -16 12 -5 13 -10 5 -18 -8 -8 -15 -8 -27 2
-8 7 -15 8 -15 4 0 -9 40 -38 44 -32 33 46 47 70 44 73 -2 2 -20 15 -40 29
-34 23 -37 23 -43 7 -9 -28 -42 -55 -50 -41 -4 7 2 14 14 17 28 7 28 52 1 81
-24 25 -31 27 -47 11z"/>
<path d="M1287 373 c-4 -3 3 -17 15 -30 25 -27 18 -30 -17 -7 -21 13 -25 14
-25 2 0 -8 15 -19 33 -26 38 -13 69 -16 51 -4 -6 4 -20 22 -31 39 -11 18 -23
30 -26 26z"/>
<path d="M1227 323 c-5 -8 47 -73 58 -73 3 0 5 7 5 15 0 8 -4 15 -10 15 -5 0
-7 8 -4 18 5 13 4 14 -4 3 -8 -10 -12 -9 -25 9 -8 12 -17 18 -20 13z"/>
<path d="M1197 303 c-4 -3 2 -18 12 -32 10 -14 20 -31 22 -38 2 -7 9 -9 15 -5
7 5 2 19 -16 44 -15 21 -30 35 -33 31z"/>
<path d="M1166 282 c-3 -6 -2 -13 4 -17 5 -3 15 -15 20 -26 11 -19 10 -19 -27
-4 -21 9 -40 17 -43 17 -21 2 -30 -5 -30 -22 0 -22 -20 -26 -38 -8 -6 6 -15 8
-19 5 -4 -4 10 -24 30 -45 l37 -37 0 48 c0 26 4 47 8 47 10 0 37 -50 34 -62
-2 -9 12 -10 21 -2 3 3 -3 15 -13 27 -27 28 -19 31 24 11 19 -10 38 -15 41
-12 3 3 -5 24 -19 48 -13 23 -27 37 -30 32z"/>
<path d="M522 229 c-19 -17 -31 -33 -27 -37 4 -4 10 -1 12 6 3 7 14 17 25 23
18 10 19 8 16 -22 -2 -20 2 -34 10 -36 8 -3 12 10 12 46 0 28 -3 51 -7 51 -5
0 -23 -14 -41 -31z"/>
<path d="M599 195 c-13 -34 -13 -45 -4 -45 7 0 15 12 18 28 3 15 9 35 12 45 4
9 3 17 -2 17 -4 0 -15 -20 -24 -45z"/>
<path d="M640 195 c-6 -17 -13 -36 -15 -42 -2 -7 0 -13 5 -13 6 0 10 9 10 19
0 34 16 31 29 -5 7 -18 17 -34 22 -34 14 0 11 15 -15 61 l-25 43 -11 -29z"/>
<path d="M987 213 c-4 -3 -3 -11 2 -17 4 -6 11 -23 15 -38 5 -21 3 -28 -9 -28
-8 0 -15 -4 -15 -9 0 -5 16 -3 35 3 38 14 63 33 28 22 -20 -6 -23 -3 -29 33
-6 40 -13 48 -27 34z"/>
<path d="M703 183 c-1 -16 1 -21 4 -13 3 8 10 21 16 28 6 8 5 12 -5 12 -8 0
-14 -11 -15 -27z"/>
<path d="M943 192 c-6 -25 -33 -30 -33 -7 0 8 -7 15 -15 15 -12 0 -11 -8 7
-45 12 -25 25 -45 28 -45 8 0 30 93 24 100 -3 2 -7 -6 -11 -18z"/>
<path d="M736 188 c-12 -37 -14 -78 -6 -78 6 0 10 18 10 39 0 22 5 42 13 44 9
4 9 6 -1 6 -7 1 -14 -5 -16 -11z"/>
<path d="M779 192 c10 -7 12 -20 7 -46 -5 -24 -3 -36 4 -36 18 0 8 83 -10 87
-12 4 -13 3 -1 -5z"/>
<path d="M836 145 c-4 -10 1 -15 14 -15 13 0 18 5 14 15 -4 8 -10 15 -14 15
-4 0 -10 -7 -14 -15z"/>
</g>
</svg>
