<?xml version="1.0" standalone="no"?>
<!DOCTYPE svg PUBLIC "-//W3C//DTD SVG 20010904//EN"
 "http://www.w3.org/TR/2001/REC-SVG-20010904/DTD/svg10.dtd">
<svg version="1.0" xmlns="http://www.w3.org/2000/svg"
 width="639.000000pt" height="640.000000pt" viewBox="0 0 639.000000 640.000000"
 preserveAspectRatio="xMidYMid meet">

<g transform="translate(0.000000,640.000000) scale(0.100000,-0.100000)"
fill="#000000" stroke="none">
<path d="M3045 6250 c-3 -5 -26 -10 -51 -10 -67 0 -264 -29 -299 -45 -16 -7
-55 -18 -85 -25 -30 -7 -59 -16 -65 -20 -5 -4 -23 -10 -40 -14 -16 -4 -58 -21
-93 -37 -34 -16 -64 -29 -67 -29 -9 0 -124 -58 -180 -91 -27 -16 -69 -38 -92
-49 -24 -12 -43 -25 -43 -30 0 -6 -5 -10 -10 -10 -16 0 -177 -122 -273 -207
-84 -75 -287 -285 -287 -297 0 -3 -7 -14 -16 -23 -43 -49 -134 -172 -134 -182
0 -6 -5 -11 -10 -11 -6 0 -15 -12 -20 -26 -6 -14 -21 -40 -35 -58 -14 -18 -25
-37 -25 -42 0 -5 -15 -31 -34 -57 -38 -54 -147 -270 -167 -332 -7 -22 -19 -49
-26 -60 -7 -11 -13 -26 -13 -33 0 -8 -11 -35 -23 -61 -13 -26 -27 -64 -31 -86
-4 -22 -14 -53 -21 -70 -7 -16 -20 -61 -30 -100 -9 -38 -21 -79 -25 -90 -5
-11 -17 -67 -26 -125 -10 -58 -21 -107 -24 -110 -11 -9 -40 -310 -40 -412 0
-54 -4 -100 -10 -103 -13 -8 -13 -192 0 -200 6 -3 10 -48 10 -98 0 -110 27
-394 40 -422 5 -11 16 -63 25 -115 9 -52 20 -104 25 -115 5 -11 16 -51 25 -89
9 -38 19 -74 24 -80 5 -6 16 -45 26 -86 10 -41 21 -77 25 -80 4 -3 13 -23 20
-45 23 -74 184 -410 230 -480 15 -22 29 -48 33 -57 4 -10 11 -18 17 -18 5 0
10 -5 10 -12 0 -15 82 -138 92 -138 4 0 8 -5 8 -10 0 -6 28 -44 63 -86 34 -41
73 -89 87 -107 31 -40 229 -238 251 -252 9 -5 51 -39 94 -75 42 -36 86 -68 96
-72 11 -4 22 -14 25 -23 4 -8 11 -15 16 -15 5 0 24 -10 41 -22 32 -24 80 -51
154 -88 24 -11 43 -25 43 -29 0 -4 19 -14 43 -21 23 -8 58 -21 77 -31 92 -44
148 -68 180 -74 19 -4 49 -13 65 -20 40 -18 154 -45 188 -45 14 0 28 -4 31 -9
11 -17 206 -34 406 -34 191 1 338 13 385 33 11 5 52 14 90 20 39 6 84 17 100
25 17 7 59 21 95 30 36 9 70 21 75 25 6 5 30 16 55 25 25 9 63 25 85 36 22 10
47 21 55 24 8 3 35 19 60 35 25 16 63 39 85 51 22 11 54 28 70 37 33 18 194
138 260 194 61 51 335 330 335 341 0 6 34 52 75 102 41 51 75 96 75 99 0 4 18
34 40 66 22 32 40 61 40 65 0 3 11 22 24 43 65 100 158 286 196 392 7 19 24
59 37 88 12 29 23 57 23 63 0 6 6 25 14 42 8 18 22 64 32 102 9 39 20 75 25
81 5 6 16 51 25 100 8 49 19 98 24 109 12 29 28 128 36 220 4 44 11 85 16 92
24 31 25 785 0 816 -5 7 -13 48 -16 92 -9 98 -24 192 -36 214 -5 9 -16 59 -25
111 -9 52 -20 99 -24 105 -4 5 -16 42 -26 80 -10 39 -21 75 -25 80 -4 6 -10
24 -13 41 -3 17 -20 61 -36 98 -17 37 -31 71 -31 77 0 6 -6 23 -14 37 -7 15
-43 88 -80 162 -80 162 -102 203 -138 255 -16 22 -28 43 -28 48 0 5 -26 42
-57 84 -32 41 -62 82 -68 91 -20 34 -91 119 -163 197 -96 103 -303 294 -319
295 -7 0 -13 5 -13 10 0 6 -8 13 -17 17 -10 3 -45 28 -78 54 -33 26 -82 59
-108 73 -26 14 -66 36 -90 49 -68 38 -99 54 -152 78 -27 12 -70 32 -95 44 -25
13 -63 26 -85 30 -22 4 -44 11 -50 15 -5 4 -39 16 -75 25 -36 9 -74 21 -85 25
-28 12 -217 40 -270 40 -24 0 -47 5 -50 10 -4 6 -72 10 -170 10 -98 0 -166 -4
-170 -10z m400 -110 c11 -5 74 -16 140 -25 66 -10 125 -21 130 -25 6 -4 44
-16 85 -26 41 -10 77 -21 80 -24 3 -3 23 -11 45 -19 73 -25 178 -74 307 -144
77 -42 249 -162 310 -216 31 -28 59 -51 63 -51 8 0 255 -247 255 -255 0 -3 29
-40 65 -83 36 -42 65 -82 65 -87 0 -6 9 -16 20 -23 11 -7 20 -17 20 -22 0 -6
20 -38 45 -72 25 -34 45 -66 45 -72 0 -5 10 -23 23 -40 29 -38 184 -351 193
-389 3 -15 10 -29 14 -32 5 -3 16 -31 26 -63 9 -31 21 -61 25 -67 4 -5 15 -39
24 -75 9 -36 23 -78 30 -95 7 -16 18 -59 25 -95 6 -36 15 -74 19 -85 12 -28
30 -118 37 -190 3 -33 9 -69 14 -80 38 -89 38 -910 -1 -950 -5 -5 -9 -24 -9
-43 0 -50 -31 -225 -41 -237 -5 -5 -9 -18 -9 -29 0 -28 -29 -145 -45 -181 -7
-16 -18 -56 -25 -87 -6 -32 -15 -60 -20 -63 -4 -3 -16 -31 -26 -63 -10 -31
-21 -59 -24 -62 -4 -3 -13 -23 -20 -45 -36 -115 -193 -402 -302 -551 -27 -36
-48 -69 -48 -74 0 -5 -11 -17 -25 -26 -14 -9 -25 -21 -25 -28 0 -32 -403 -435
-436 -436 -7 0 -14 -7 -18 -15 -3 -8 -10 -15 -16 -15 -6 0 -38 -22 -73 -49
-34 -27 -78 -56 -97 -65 -19 -9 -57 -30 -85 -46 -56 -32 -98 -53 -165 -83 -25
-11 -61 -27 -80 -37 -19 -9 -57 -22 -85 -29 -27 -7 -63 -19 -80 -26 -16 -7
-59 -19 -95 -25 -36 -7 -74 -16 -85 -21 -108 -45 -701 -45 -810 0 -11 5 -51
14 -90 21 -38 7 -88 20 -110 30 -22 10 -55 21 -74 25 -18 4 -55 18 -81 31 -26
13 -51 24 -54 24 -10 0 -141 66 -201 100 -27 16 -61 35 -75 42 -14 7 -29 18
-33 25 -4 7 -13 13 -20 13 -7 0 -46 27 -87 60 -41 33 -80 60 -87 60 -16 0
-373 355 -373 371 0 6 -9 21 -20 33 -43 46 -123 152 -131 174 -5 12 -13 22
-19 22 -5 0 -10 5 -10 10 0 6 -12 28 -26 50 -50 75 -215 397 -234 456 -7 21
-16 44 -21 49 -4 6 -15 33 -24 60 -9 28 -20 59 -25 70 -5 11 -16 49 -26 85 -9
36 -22 79 -29 95 -7 17 -18 62 -25 100 -6 39 -15 79 -20 90 -12 28 -29 127
-36 215 -4 41 -11 80 -16 86 -25 33 -25 762 0 810 5 11 17 82 26 158 9 77 20
144 25 150 5 6 14 45 21 86 7 41 18 89 26 105 7 17 21 59 29 95 9 36 23 79 31
97 8 17 14 36 14 42 0 6 11 34 24 63 13 29 29 69 35 88 17 55 159 330 197 383
20 27 39 58 44 70 4 12 33 56 64 97 31 41 70 95 88 120 31 41 187 216 225 250
136 125 210 188 239 204 20 10 38 25 41 32 3 8 9 14 14 14 5 0 29 16 55 35 25
19 52 35 59 35 8 0 18 6 22 13 4 6 24 20 43 30 19 9 64 32 100 51 91 48 168
83 215 97 22 7 45 16 50 20 6 4 41 15 79 23 38 9 74 20 80 25 6 5 63 16 126
26 63 9 124 21 135 26 38 17 439 16 480 -1z"/>
<path d="M3130 6050 c0 -6 -29 -10 -66 -10 -72 0 -283 -28 -299 -40 -5 -4 -44
-15 -85 -25 -41 -10 -79 -21 -85 -25 -5 -4 -23 -10 -40 -14 -34 -8 -128 -51
-225 -102 -36 -19 -84 -43 -107 -55 -24 -11 -43 -24 -43 -29 0 -6 -6 -10 -14
-10 -8 0 -34 -15 -58 -33 -24 -18 -51 -36 -60 -40 -10 -3 -18 -11 -18 -16 0
-6 -16 -18 -37 -27 -40 -20 -370 -343 -421 -414 -18 -25 -57 -79 -88 -120 -31
-41 -60 -85 -65 -97 -5 -13 -13 -23 -19 -23 -5 0 -10 -6 -10 -13 0 -8 -12 -32
-28 -53 -33 -48 -175 -334 -192 -389 -7 -22 -16 -42 -20 -45 -3 -3 -14 -32
-24 -65 -11 -33 -22 -64 -26 -70 -5 -5 -16 -45 -26 -87 -10 -43 -21 -78 -25
-78 -4 0 -15 -44 -24 -97 -9 -54 -21 -107 -27 -117 -5 -10 -17 -80 -25 -155
-8 -75 -20 -147 -26 -160 -16 -32 -17 -659 -1 -669 6 -4 14 -45 18 -92 9 -106
25 -209 36 -235 5 -11 16 -60 25 -110 9 -49 20 -94 25 -100 4 -5 16 -44 26
-85 10 -41 21 -77 25 -80 3 -3 13 -31 23 -62 10 -32 21 -60 25 -63 4 -2 16
-31 26 -65 10 -33 22 -60 27 -60 4 0 8 -8 8 -17 0 -10 22 -61 48 -113 69 -135
85 -164 99 -173 7 -4 13 -13 13 -18 0 -6 13 -30 30 -54 16 -24 30 -48 30 -53
0 -6 29 -45 63 -89 35 -43 75 -96 89 -118 33 -52 311 -330 363 -363 22 -14 72
-51 111 -83 38 -31 86 -64 105 -73 18 -9 57 -30 84 -46 48 -29 109 -59 240
-120 33 -15 76 -31 95 -35 19 -4 49 -13 65 -20 39 -17 154 -45 186 -45 14 0
29 -4 35 -9 38 -38 606 -39 689 -1 11 5 52 14 90 20 39 6 84 17 100 25 17 7
53 18 80 25 28 7 61 19 75 26 32 16 123 56 180 79 25 10 50 23 55 29 13 13 58
40 105 62 19 9 63 38 97 65 35 27 67 49 73 49 5 0 15 9 22 20 7 11 18 20 25
20 28 0 433 416 433 445 0 4 17 28 38 54 21 25 47 62 58 81 10 19 37 62 60 95
39 58 184 338 184 356 0 9 14 41 61 144 10 22 25 69 34 105 9 36 22 79 30 95
7 17 19 57 26 90 7 33 15 65 19 70 4 6 15 62 25 125 9 63 21 124 26 135 41
101 41 899 -1 1000 -4 11 -16 69 -25 129 -10 60 -21 117 -25 125 -4 9 -16 52
-26 96 -9 44 -21 85 -25 91 -5 5 -15 38 -23 73 -8 34 -19 68 -24 74 -5 7 -15
30 -22 52 -7 22 -16 45 -21 50 -4 6 -15 33 -24 60 -23 68 -112 248 -158 316
-20 31 -37 59 -37 63 0 3 -19 34 -42 67 -24 33 -47 68 -53 78 -20 34 -144 187
-179 220 -20 19 -36 40 -36 45 0 15 -196 196 -300 277 -63 49 -192 135 -248
166 -143 78 -246 125 -312 144 -25 7 -49 16 -55 20 -5 4 -39 15 -75 24 -36 9
-74 21 -85 25 -34 15 -222 40 -295 40 -38 0 -72 5 -75 10 -3 6 -40 10 -81 10
-43 0 -74 -4 -74 -10z m-961 -588 c5 -9 12 -34 16 -55 4 -20 10 -37 14 -37 4
0 16 -34 26 -75 11 -41 22 -75 25 -75 3 0 12 -17 18 -37 7 -21 24 -60 37 -88
13 -27 28 -61 34 -75 6 -14 27 -52 46 -85 20 -33 41 -72 47 -87 7 -16 16 -28
20 -28 4 0 8 -5 8 -12 0 -6 18 -35 40 -64 22 -29 40 -57 40 -63 0 -5 7 -11 15
-15 8 -3 15 -10 15 -15 0 -6 22 -39 48 -74 26 -36 54 -84 62 -108 8 -24 19
-47 25 -51 6 -4 10 -54 10 -125 0 -93 -4 -124 -18 -148 -9 -16 -17 -35 -17
-41 0 -7 -25 -44 -55 -83 -30 -39 -55 -76 -55 -81 0 -5 -9 -14 -20 -20 -11 -6
-20 -15 -20 -21 0 -6 -9 -24 -21 -40 -11 -16 -26 -59 -33 -96 -6 -37 -17 -68
-23 -70 -6 -2 -22 11 -34 29 -35 48 -34 163 1 233 14 28 28 52 32 56 14 10 69
124 83 173 29 95 15 189 -40 276 -14 22 -25 44 -25 49 0 6 -6 14 -13 18 -7 4
-18 19 -25 33 -7 14 -25 46 -40 72 -29 50 -152 295 -182 363 -10 22 -24 60
-31 85 -7 25 -16 50 -21 56 -27 36 -53 316 -31 337 12 13 32 7 42 -11z m2155
-36 c7 -63 -9 -197 -28 -241 -8 -16 -17 -46 -21 -65 -7 -34 -21 -70 -70 -175
-13 -27 -29 -66 -36 -85 -7 -19 -15 -37 -18 -40 -3 -3 -14 -21 -24 -40 -10
-19 -33 -62 -52 -95 -18 -33 -38 -69 -43 -81 -6 -11 -24 -41 -41 -66 -17 -25
-31 -50 -31 -56 0 -5 -6 -12 -12 -15 -7 -2 -19 -25 -26 -50 -8 -25 -19 -48
-25 -50 -13 -4 -12 -154 2 -171 4 -6 16 -37 26 -68 10 -32 22 -58 26 -58 5 0
16 -15 24 -32 8 -18 25 -49 38 -68 19 -30 22 -48 22 -136 0 -86 -3 -105 -19
-123 -32 -35 -46 -27 -46 27 0 26 -7 56 -15 66 -8 11 -15 27 -15 36 0 9 -21
43 -47 76 -27 33 -52 67 -58 76 -5 8 -28 41 -49 74 -52 77 -65 136 -57 255 4
71 11 103 27 129 12 19 25 46 29 60 4 14 18 39 31 56 13 17 24 34 24 38 0 3
23 36 50 71 28 35 50 69 50 75 0 5 4 10 10 10 5 0 16 15 25 33 8 17 31 59 50
92 32 56 87 164 141 280 13 28 26 64 30 80 4 17 10 35 14 40 4 6 15 37 24 70
37 133 78 166 90 71z m-1134 -313 c0 -120 -5 -236 -10 -258 -20 -88 -104 -112
-192 -52 -26 17 -48 36 -48 41 0 4 -45 55 -100 113 -55 58 -100 109 -100 115
0 19 111 -1 155 -28 74 -45 80 -49 90 -60 5 -7 22 -19 38 -29 24 -16 27 -16
27 -1 0 9 4 24 9 34 5 9 14 61 20 116 13 114 58 226 92 226 18 0 19 -11 19
-217z m112 179 c14 -21 29 -58 33 -82 4 -25 11 -50 16 -55 4 -6 14 -61 20
-122 l13 -111 55 46 c92 77 133 99 199 108 45 6 52 4 52 -10 0 -21 -224 -261
-262 -282 -15 -8 -45 -14 -67 -14 -33 0 -46 6 -76 37 l-35 36 0 244 c0 266 3
279 52 205z m-1262 -47 c0 -14 3 -25 8 -25 4 0 16 -46 26 -102 10 -57 22 -107
26 -113 4 -5 15 -37 24 -70 10 -33 26 -79 37 -102 10 -24 19 -46 19 -50 0 -5
18 -44 40 -88 22 -44 40 -85 40 -90 0 -6 11 -27 25 -47 14 -20 35 -56 48 -80
13 -24 38 -69 55 -101 46 -83 45 -144 -3 -195 l-35 -37 -25 30 c-14 17 -32 46
-42 65 -9 19 -30 55 -47 80 -37 53 -89 158 -107 215 -7 22 -16 45 -20 50 -4 6
-15 39 -24 75 -9 36 -23 79 -30 95 -7 17 -19 66 -25 110 -7 44 -17 86 -22 92
-12 15 -16 283 -5 301 14 21 37 14 37 -13z m2394 9 c19 -48 -10 -418 -33 -434
-4 -3 -13 -34 -20 -70 -7 -36 -21 -83 -31 -105 -10 -22 -21 -56 -25 -75 -7
-34 -14 -50 -65 -150 -44 -88 -52 -100 -61 -100 -5 0 -9 -5 -9 -10 0 -13 -80
-149 -92 -156 -15 -10 -56 31 -69 68 -17 52 -5 121 31 173 16 24 30 47 30 52
0 5 11 25 25 46 30 43 109 200 120 236 4 14 18 45 31 69 13 25 24 52 24 61 0
9 6 27 13 41 8 14 22 57 31 95 10 39 22 79 26 90 5 11 14 49 21 85 17 93 37
125 53 84z m-2479 -304 c4 -6 13 -74 20 -151 8 -78 19 -147 23 -153 5 -6 17
-48 26 -93 10 -45 26 -100 37 -122 10 -22 19 -45 19 -51 0 -7 6 -24 14 -38 8
-15 23 -48 33 -74 10 -27 21 -48 26 -48 4 0 7 -6 7 -13 0 -7 16 -36 35 -64 19
-29 35 -56 35 -61 0 -4 11 -23 25 -42 14 -18 28 -49 31 -67 3 -18 10 -36 15
-39 14 -8 10 -58 -7 -92 -27 -55 -58 -72 -133 -72 -85 0 -196 17 -221 32 -39
24 -21 51 45 68 33 9 73 22 88 28 16 7 35 12 43 12 19 0 19 2 -24 78 -49 87
-96 187 -112 237 -7 22 -16 45 -20 50 -5 6 -16 53 -25 105 -10 52 -22 101 -28
108 -14 18 -15 345 -1 363 6 8 15 35 18 62 7 45 18 58 31 37z m2552 -2 c6 -7
16 -51 23 -97 20 -131 0 -454 -30 -496 -4 -5 -13 -35 -20 -65 -7 -30 -18 -64
-25 -75 -6 -11 -18 -38 -25 -60 -7 -22 -27 -65 -43 -95 -60 -110 -77 -141 -77
-145 0 -2 15 -6 33 -10 17 -3 41 -10 52 -16 11 -5 40 -15 64 -22 55 -16 74
-40 46 -61 -28 -21 -95 -31 -212 -31 -97 0 -104 1 -129 26 -23 23 -26 34 -25
92 0 70 14 101 100 237 37 58 66 116 96 190 10 25 26 63 36 85 10 22 21 58 25
80 3 22 10 45 14 50 10 14 40 152 40 186 0 15 4 30 9 33 4 3 12 51 15 106 7
98 13 113 33 88z m-1352 -780 c14 -6 25 -15 25 -19 0 -4 3 -14 6 -23 6 -17
-52 -80 -100 -108 -106 -62 -176 -88 -233 -88 -65 0 -72 4 -92 42 -18 34 -11
43 57 74 31 15 64 32 72 39 8 7 49 31 90 54 79 43 127 51 175 29z m278 -17
c18 -12 47 -28 65 -36 17 -8 32 -19 32 -23 0 -4 23 -16 50 -27 28 -11 50 -23
50 -27 0 -3 10 -8 23 -10 32 -4 35 -44 5 -75 -21 -23 -28 -25 -95 -21 -72 5
-158 37 -176 66 -4 6 -14 12 -21 12 -21 0 -114 78 -122 102 -5 17 0 28 22 46
24 21 35 24 81 19 30 -3 68 -15 86 -26z m-248 -221 c13 -41 -5 -98 -40 -127
-45 -38 -119 -83 -136 -83 -8 0 -27 -8 -44 -17 -35 -19 -203 -25 -226 -7 -8 6
-32 16 -54 23 -57 18 -110 105 -76 126 5 3 12 19 16 35 8 35 38 41 54 12 21
-40 171 -56 261 -28 44 13 61 21 145 64 54 27 92 28 100 2z m189 -20 c136 -70
299 -81 371 -25 44 33 60 28 75 -22 9 -29 8 -47 -2 -76 -13 -39 -27 -50 -103
-84 -54 -24 -205 -25 -255 -1 -19 9 -52 23 -72 31 -20 9 -62 40 -92 69 -47 45
-56 60 -56 89 0 38 14 59 41 59 9 0 51 -18 93 -40z m-2230 -52 c22 -6 46 -15
51 -18 6 -4 37 -15 70 -26 33 -10 62 -21 65 -24 3 -3 43 -14 90 -24 47 -10 90
-21 95 -26 11 -8 107 -25 205 -35 36 -4 70 -11 75 -16 6 -4 105 -13 220 -19
218 -11 265 -16 265 -31 0 -5 7 -9 16 -9 18 0 77 -31 82 -42 2 -5 9 -8 15 -8
16 0 87 -71 87 -87 0 -8 6 -16 14 -19 8 -3 19 -26 26 -52 7 -26 18 -60 25 -77
7 -16 20 -67 29 -112 22 -120 53 -159 166 -209 112 -50 223 -110 233 -126 7
-10 17 -18 23 -18 19 0 70 -64 98 -125 18 -36 29 -81 33 -125 7 -82 -14 -319
-31 -339 -15 -20 -16 -582 0 -602 17 -21 38 -209 25 -222 -12 -12 -51 17 -51
39 0 7 -6 17 -14 21 -7 4 -19 26 -25 48 -7 22 -19 54 -27 71 -7 17 -19 67 -25
110 -6 44 -16 90 -22 103 -17 35 -16 616 1 633 14 14 17 129 4 143 -5 6 -17
31 -26 57 -19 52 -111 145 -176 177 -172 88 -247 153 -275 244 -21 68 -25 76
-76 181 -58 119 -143 192 -227 195 -12 1 -30 5 -40 10 -9 5 -91 17 -182 26
-91 9 -169 20 -175 24 -5 5 -57 16 -115 26 -58 9 -110 21 -115 25 -6 5 -40 15
-77 24 -37 9 -76 20 -85 26 -10 5 -40 16 -66 25 -27 8 -73 31 -103 50 -30 19
-57 35 -61 35 -15 0 -83 75 -83 92 0 21 9 22 64 6z m4226 -4 c0 -15 -43 -64
-57 -64 -3 0 -22 -13 -42 -28 -41 -32 -155 -92 -174 -92 -7 0 -28 -8 -47 -19
-19 -10 -65 -24 -102 -31 -38 -8 -68 -17 -68 -20 0 -4 -46 -15 -102 -24 -57
-10 -112 -21 -123 -26 -25 -11 -150 -28 -268 -36 -48 -4 -90 -11 -93 -16 -3
-4 -16 -8 -28 -8 -32 0 -92 -26 -133 -57 -29 -22 -103 -114 -103 -128 0 -3 -9
-24 -19 -48 -11 -23 -26 -65 -35 -93 -24 -73 -48 -118 -86 -156 -38 -38 -128
-98 -147 -98 -7 0 -13 -4 -13 -10 0 -5 -15 -16 -32 -24 -18 -8 -58 -35 -88
-60 -30 -25 -58 -46 -62 -46 -5 0 -8 -5 -8 -11 0 -6 -11 -25 -24 -42 -39 -51
-46 -105 -34 -257 19 -245 0 -703 -32 -762 -5 -9 -16 -44 -25 -79 -9 -34 -27
-76 -41 -94 -13 -18 -24 -37 -24 -42 0 -18 -33 -25 -48 -10 -10 11 -11 19 -3
33 15 28 41 247 41 351 0 51 5 95 10 98 6 3 10 19 10 35 0 16 -4 32 -10 35 -5
3 -10 50 -11 103 -1 107 -30 386 -42 398 -10 10 -9 91 2 112 5 9 14 40 20 67
6 28 26 71 44 96 46 66 143 146 202 166 27 9 63 24 80 35 16 10 37 18 45 18
18 0 106 61 126 87 7 10 14 25 14 33 0 8 6 27 14 42 8 14 19 59 26 100 7 40
20 91 30 113 10 22 21 51 25 64 12 39 118 136 172 156 26 10 53 22 59 26 17
13 144 27 313 34 85 3 159 9 165 14 6 5 40 12 76 16 93 9 183 25 195 35 6 4
42 13 80 20 39 7 84 18 100 26 17 7 54 20 84 28 29 9 59 20 65 25 14 12 74 29
104 30 14 1 22 -5 22 -15z m-2102 -121 c63 -61 180 -121 252 -130 30 -3 58
-11 62 -17 4 -6 8 -46 8 -88 0 -45 4 -78 10 -78 6 0 10 -32 10 -75 0 -41 -4
-75 -9 -75 -5 0 -12 -20 -15 -44 -4 -25 -18 -61 -32 -81 -13 -20 -24 -38 -24
-42 0 -21 -159 -143 -187 -143 -6 0 -13 -6 -16 -13 -8 -21 -90 -40 -139 -33
-24 4 -63 20 -87 36 -24 17 -50 30 -56 30 -7 0 -44 29 -82 65 -100 92 -126
148 -130 285 -2 58 0 141 4 184 l8 80 72 12 c92 15 147 43 225 115 35 32 66
58 70 59 4 0 29 -21 56 -47z m-641 -88 c10 -18 101 -65 126 -65 15 0 17 -11
17 -81 0 -80 0 -81 -22 -75 -13 4 -35 9 -51 12 -37 9 -116 80 -123 112 -4 15
-11 33 -17 40 -6 8 -6 16 0 25 6 6 13 24 17 40 6 23 9 26 26 17 10 -6 23 -17
27 -25z m1238 -9 c9 -58 -1 -101 -31 -133 -28 -30 -110 -72 -141 -73 -22 0
-23 4 -23 73 l0 72 54 24 c30 13 67 36 82 52 38 40 52 37 59 -15z m-2600 -25
c121 -59 165 -78 225 -97 30 -9 60 -21 65 -25 6 -4 42 -15 80 -25 39 -9 75
-20 80 -24 6 -5 57 -16 115 -25 58 -9 114 -21 125 -25 11 -4 71 -15 133 -23
93 -12 117 -19 138 -38 35 -33 54 -72 54 -112 l0 -34 -57 5 c-32 2 -62 8 -68
13 -5 5 -25 9 -45 9 -51 0 -231 28 -244 39 -6 4 -42 16 -80 25 -38 9 -78 24
-90 31 -11 8 -27 15 -35 15 -8 0 -80 32 -160 71 -196 96 -331 197 -331 249 0
16 10 12 95 -29z m4005 14 c0 -19 -119 -124 -177 -157 -27 -14 -82 -43 -123
-63 -41 -20 -91 -45 -110 -54 -19 -10 -55 -24 -80 -31 -25 -8 -47 -17 -50 -20
-3 -4 -36 -15 -75 -25 -38 -10 -72 -22 -75 -25 -8 -10 -114 -28 -210 -36 -47
-4 -87 -10 -90 -14 -3 -4 -31 -9 -63 -12 -72 -6 -77 3 -47 69 33 71 69 95 164
110 45 6 96 12 114 12 18 1 40 5 50 10 9 5 61 17 115 26 53 9 99 21 102 25 3
4 24 11 47 14 42 6 103 25 123 37 6 4 37 14 70 24 50 14 172 67 275 119 28 14
40 12 40 -9z m-2558 -282 c12 -6 31 -14 41 -17 10 -3 17 -15 17 -31 0 -14 5
-46 11 -71 6 -25 9 -47 6 -50 -12 -13 -85 18 -114 48 -46 49 -53 68 -46 132
l6 57 27 -28 c16 -16 39 -34 52 -40z m1096 14 c2 -31 -2 -55 -12 -69 -9 -12
-16 -31 -16 -40 0 -10 -11 -23 -25 -28 -14 -5 -25 -13 -25 -18 0 -9 -65 -32
-89 -32 -13 0 -6 39 15 84 8 16 14 39 14 50 0 16 13 27 51 45 30 13 54 31 56
42 9 35 28 14 31 -34z m-2361 -7 c24 -16 47 -30 50 -30 3 0 30 -16 59 -35 29
-19 57 -35 63 -35 6 0 11 -4 11 -10 0 -5 7 -10 15 -10 9 0 45 -13 80 -30 35
-16 67 -30 70 -30 3 0 24 -9 48 -19 23 -11 76 -27 117 -36 41 -10 80 -22 87
-27 6 -5 76 -16 155 -24 79 -8 154 -20 168 -25 71 -30 97 -48 123 -85 l29 -41
-1 -199 c-1 -202 12 -398 27 -418 5 -6 17 -51 27 -101 10 -49 21 -94 25 -100
4 -5 16 -35 26 -65 10 -30 22 -57 25 -60 9 -8 39 -101 39 -122 0 -10 -3 -18
-7 -18 -9 0 -103 105 -103 115 0 3 -12 22 -27 41 -40 53 -109 197 -123 257 -7
28 -16 57 -21 63 -10 12 -39 174 -39 215 0 15 -4 31 -10 34 -6 4 -10 70 -10
164 l0 159 -77 7 c-43 4 -82 11 -88 15 -5 4 -44 13 -85 20 -41 7 -88 18 -105
25 -16 8 -54 22 -84 31 -76 24 -225 102 -293 152 -32 23 -61 42 -65 42 -11 0
-133 123 -133 135 0 5 -12 21 -25 34 -52 49 -16 57 52 11z m3623 20 c0 -25
-195 -215 -255 -248 -16 -9 -32 -20 -35 -24 -11 -14 -221 -117 -253 -123 -18
-4 -50 -15 -72 -25 -22 -10 -71 -23 -110 -30 -38 -7 -75 -16 -80 -21 -6 -4
-49 -11 -97 -15 l-87 -7 0 -152 c1 -144 -17 -344 -31 -355 -4 -3 -15 -39 -25
-80 -10 -41 -22 -82 -26 -90 -4 -8 -26 -55 -50 -105 -23 -49 -59 -111 -80
-136 -22 -26 -39 -50 -39 -54 0 -12 -67 -75 -80 -75 -14 0 -13 32 4 55 7 11
19 38 26 60 7 22 18 49 24 60 7 11 20 47 30 80 10 33 21 69 26 80 13 29 40
172 40 209 0 18 5 37 12 44 8 8 11 76 10 240 -2 265 5 304 58 340 19 12 45 25
59 28 14 3 35 10 46 14 11 5 83 16 159 25 76 8 144 19 150 24 6 5 45 16 86 25
41 10 79 21 85 25 5 4 30 14 55 21 25 8 61 21 80 31 19 9 64 31 100 48 36 17
85 45 110 61 25 16 48 30 52 30 4 0 24 11 44 25 38 26 64 32 64 15z m-2390
-630 c0 -5 8 -10 19 -10 33 0 72 -27 90 -63 16 -32 19 -71 24 -304 5 -261 21
-443 38 -443 5 0 9 -12 9 -27 0 -34 31 -166 40 -173 4 -3 10 -23 14 -45 4 -22
10 -50 13 -62 8 -36 -21 -28 -54 15 -27 34 -57 93 -111 212 -11 25 -25 71 -32
102 -6 32 -15 60 -19 63 -5 2 -16 53 -26 112 -9 59 -22 119 -28 132 -13 26
-15 471 -2 490 8 14 25 14 25 1z m1103 -57 c17 -174 -3 -534 -32 -591 -5 -9
-17 -53 -26 -97 -10 -44 -21 -84 -25 -90 -4 -5 -15 -37 -26 -70 -10 -33 -20
-62 -23 -65 -3 -3 -14 -21 -24 -40 -51 -99 -80 -140 -99 -140 -4 0 -8 11 -8
24 0 31 28 145 41 169 5 9 16 66 25 125 9 59 20 116 24 127 16 37 23 150 24
382 1 218 2 233 22 260 11 15 34 34 50 41 16 7 36 17 44 22 25 15 27 12 33
-57z m1060 -25 c31 -16 20 -38 -18 -38 -29 0 -37 -5 -45 -26 -15 -37 -12 -75
6 -95 15 -17 18 -17 43 -2 14 9 50 39 79 67 50 49 55 51 104 49 35 -1 56 -7
64 -17 6 -9 16 -16 22 -16 5 0 15 -14 21 -31 24 -68 7 -150 -40 -202 -23 -25
-30 -27 -48 -18 -11 7 -21 14 -21 17 0 3 16 25 35 48 39 48 47 103 19 130 -23
24 -39 20 -77 -19 -19 -19 -38 -35 -42 -35 -5 0 -22 -12 -38 -27 -23 -23 -37
-28 -78 -28 -44 0 -54 4 -80 33 -24 27 -29 41 -29 85 0 28 8 73 17 100 17 46
18 47 53 41 19 -4 43 -11 53 -16z m-3177 -72 c34 -36 43 -54 49 -96 8 -61 2
-70 -54 -77 -37 -5 -41 -4 -41 16 0 11 4 21 10 21 23 0 30 39 14 80 -13 33
-21 40 -44 40 -29 0 -40 -15 -40 -55 0 -13 -4 -26 -9 -29 -4 -3 -11 -28 -14
-55 -7 -58 -27 -93 -63 -109 -100 -46 -199 39 -192 166 3 53 5 57 29 60 l27 3
-5 -63 c-4 -54 -2 -67 17 -90 23 -30 60 -37 79 -14 6 8 14 37 18 65 3 28 10
54 14 57 5 3 9 17 9 31 0 15 13 38 34 59 28 28 41 34 77 34 37 0 48 -5 85 -44z
m98 -230 c14 -30 26 -62 26 -70 0 -9 4 -16 8 -16 4 0 16 -22 27 -50 11 -27 23
-50 27 -50 4 0 8 -6 8 -14 0 -7 12 -30 26 -51 30 -44 25 -68 -13 -63 -21 2
-29 11 -40 43 -7 22 -21 50 -31 63 l-18 23 -64 -35 c-113 -61 -246 -126 -257
-126 -14 0 -38 68 -28 78 3 4 75 41 158 83 162 81 160 78 136 141 -9 21 -19
28 -47 30 -46 4 -53 27 -15 50 50 31 69 24 97 -36z m2928 17 c3 -24 18 -35
127 -90 69 -34 139 -68 158 -74 41 -13 44 -19 37 -57 -11 -56 -18 -54 -301 84
-44 22 -54 24 -72 12 -16 -10 -23 -10 -32 -1 -9 9 -7 22 9 55 11 24 25 55 31
71 14 35 39 35 43 0z m-34 -219 c12 -4 22 -12 22 -19 0 -7 7 -18 15 -25 8 -7
15 -21 15 -32 0 -19 1 -19 29 1 28 20 91 29 91 13 0 -4 10 -12 22 -17 12 -6
24 -17 28 -25 4 -8 12 -25 18 -37 15 -28 15 -70 2 -78 -5 -3 -10 -14 -10 -24
0 -10 -12 -36 -28 -57 -15 -21 -33 -51 -39 -66 -7 -16 -16 -28 -21 -28 -5 0
-28 13 -50 30 -23 17 -45 30 -49 30 -5 0 -26 14 -47 30 -22 17 -46 30 -53 30
-7 0 -13 4 -13 10 0 5 -16 16 -35 25 -19 9 -39 23 -46 31 -15 18 -33 18 -49
-1 -7 -8 -16 -15 -21 -15 -16 0 -10 47 7 61 9 8 25 32 34 54 10 23 33 58 52
78 36 38 69 46 126 31z m-2710 -157 c29 -43 28 -53 -8 -107 -16 -25 -30 -51
-30 -57 0 -7 -4 -13 -10 -13 -5 0 -17 -15 -25 -32 -9 -18 -27 -53 -41 -77 -13
-24 -23 -45 -21 -47 4 -4 90 17 102 26 6 4 44 15 85 25 l76 17 -4 34 c-5 41
10 44 35 8 10 -14 25 -34 35 -44 9 -10 19 -28 23 -40 7 -21 5 -23 -26 -16 -33
6 -150 -11 -159 -24 -3 -4 -41 -15 -85 -25 -44 -11 -91 -25 -105 -32 -36 -19
-64 -16 -86 8 -15 16 -16 23 -6 37 7 9 23 40 37 67 14 28 41 77 60 110 19 33
39 71 45 84 6 13 20 36 31 52 11 16 19 37 18 46 -2 29 0 33 19 33 9 0 27 -15
40 -33z m2507 -143 c27 -7 65 -75 65 -116 0 -43 30 -57 134 -60 54 -2 80 -7
83 -16 6 -15 -24 -52 -44 -52 -7 0 -13 -4 -13 -10 0 -12 -32 -13 -45 -1 -15
13 -153 23 -160 11 -3 -5 19 -34 50 -63 30 -30 55 -58 55 -63 0 -5 -11 -22
-23 -38 l-24 -29 -99 93 c-54 51 -116 108 -136 127 -76 71 -102 12 -72 -160
10 -56 21 -104 25 -107 4 -3 13 -45 20 -93 12 -79 11 -89 -4 -104 -15 -15 -19
-15 -44 -2 -15 8 -32 20 -36 26 -4 7 -13 13 -19 13 -6 0 -32 16 -58 35 -26 19
-53 35 -59 35 -6 0 -11 5 -11 10 0 6 -11 15 -26 20 -14 6 -42 23 -62 39 -20
16 -50 31 -67 33 -40 4 -38 21 8 52 37 25 87 28 87 5 0 -5 10 -13 23 -18 12
-5 48 -30 81 -55 32 -25 62 -46 66 -46 5 0 22 -12 39 -26 21 -17 31 -21 31
-12 0 8 -4 18 -9 24 -5 5 -16 52 -25 104 -10 52 -23 107 -29 123 -12 27 -27
36 -27 16 0 -8 -5 -8 -15 1 -22 19 -20 25 38 82 29 29 88 92 132 141 72 78 84
87 115 87 19 0 44 -3 55 -6z m-2240 -214 c16 -16 34 -30 42 -30 7 0 17 -9 23
-20 6 -11 16 -20 23 -20 22 0 100 -87 113 -127 16 -45 18 -105 4 -153 -11 -37
-85 -120 -108 -120 -8 0 -30 -8 -49 -17 -28 -13 -39 -14 -54 -5 -10 7 -29 12
-41 13 -40 1 -93 32 -157 90 -60 55 -61 56 -41 74 11 10 20 22 20 27 0 5 34
51 75 103 41 51 75 97 75 101 0 4 10 18 22 31 20 21 20 24 5 41 -13 14 -14 21
-5 30 17 17 21 16 53 -18z m343 -252 c7 -7 31 -21 55 -33 49 -23 60 -60 17
-60 -21 0 -31 -12 -58 -65 -18 -36 -40 -85 -49 -110 -8 -25 -18 -47 -22 -50
-4 -3 -15 -25 -26 -50 -10 -25 -20 -46 -21 -48 -5 -9 -84 20 -84 31 0 7 36 84
80 171 75 149 79 161 64 178 -28 30 15 65 44 36z m213 -104 c11 -9 19 -30 19
-45 0 -15 4 -30 9 -33 5 -3 12 -45 16 -93 4 -49 10 -105 14 -125 l6 -38 48 68
c27 37 57 81 68 97 10 17 24 38 31 47 10 14 10 22 0 38 -6 11 -12 22 -12 24 0
8 255 3 278 -5 12 -5 22 -13 22 -19 0 -6 13 -30 28 -53 16 -23 31 -50 35 -59
4 -10 11 -18 17 -18 5 0 10 -5 10 -11 0 -6 17 -34 37 -62 l38 -51 11 44 c5 25
13 52 16 60 4 8 14 49 23 90 9 41 22 87 28 101 11 27 52 54 100 65 23 5 27 3
27 -16 0 -13 -7 -28 -15 -34 -14 -10 -13 -20 2 -96 9 -47 20 -87 24 -90 4 -3
14 -43 24 -90 9 -47 22 -91 27 -97 7 -9 0 -14 -31 -19 -23 -4 -41 -12 -41 -18
0 -30 -33 58 -47 124 -8 41 -19 79 -24 84 -5 6 -9 20 -9 32 0 53 -18 28 -30
-41 -7 -41 -16 -75 -20 -75 -4 0 -11 -21 -15 -47 -9 -59 -21 -83 -42 -83 -18
0 -53 28 -53 43 0 5 -22 40 -50 78 -27 38 -50 72 -50 76 0 5 -7 17 -15 27 -13
17 -14 3 -8 -122 l6 -141 -27 -11 c-54 -20 -53 -22 -60 158 -9 222 -11 228
-48 236 -47 9 -80 -16 -140 -106 -31 -46 -70 -101 -88 -123 -18 -22 -36 -50
-41 -62 -5 -13 -13 -23 -19 -23 -5 0 -10 -7 -10 -15 0 -10 -11 -15 -35 -15
-32 0 -35 3 -35 28 0 15 -4 32 -9 37 -5 6 -17 83 -27 172 -14 127 -21 167 -36
182 -10 11 -18 28 -18 37 0 14 7 16 36 11 20 -3 45 -14 55 -23z"/>
<path d="M2975 3485 c-70 -41 -53 -65 46 -65 66 0 109 10 109 26 0 17 -73 64
-97 63 -10 0 -36 -11 -58 -24z"/>
<path d="M3343 3484 c-58 -45 -38 -64 68 -64 34 0 63 6 75 15 19 15 19 15 -5
35 -13 11 -31 20 -42 20 -10 0 -21 5 -24 10 -11 17 -39 11 -72 -16z"/>
<path d="M3180 3280 c-13 -9 -13 -11 0 -20 23 -16 105 -1 88 15 -11 12 -74 15
-88 5z"/>
<path d="M3100 3151 c0 -13 50 -51 66 -51 8 0 14 -4 14 -10 0 -17 53 -11 93 9
98 50 89 61 -53 61 -67 0 -120 -4 -120 -9z"/>
<path d="M4550 2055 c-22 -23 -22 -25 -4 -31 10 -4 34 -18 53 -32 l34 -25 18
24 c24 31 24 31 -7 63 -33 33 -64 33 -94 1z"/>
<path d="M4753 2013 c-20 -8 -73 -60 -73 -72 0 -6 5 -11 11 -11 6 0 33 -16 59
-35 26 -19 52 -35 58 -35 11 0 42 61 42 83 0 36 -66 83 -97 70z"/>
<path d="M4339 1759 l-21 -21 53 -54 c55 -56 69 -64 69 -40 0 8 7 16 15 20 8
3 15 17 15 31 0 14 -7 28 -15 31 -8 4 -15 12 -15 20 0 16 -31 34 -59 34 -12 0
-30 -9 -42 -21z"/>
<path d="M2206 1496 c-20 -24 -36 -49 -36 -55 0 -6 -9 -15 -20 -21 -11 -6 -20
-15 -20 -21 0 -6 -16 -30 -35 -53 -41 -50 -43 -65 -12 -93 35 -32 62 -43 107
-43 35 0 48 7 89 45 27 25 54 60 61 78 6 18 16 40 21 49 5 10 5 19 -1 23 -6 3
-10 16 -10 28 0 22 -76 107 -96 107 -6 0 -28 -20 -48 -44z"/>
</g>
</svg>
